# xmcd CD database file
#
# Track frame offsets:
#	150
#	35983
#	47670
#	57583
#	90788
#	117798
#	128545
#	138988
#	174638
#	225499
#	277889
#
# Disc length: 4719 seconds
#
# Revision: 0
# Processed by: cddbd v1.5.2PL0 Copyright (c) Steve Scherf et al.
# Submitted via: CDex 1.83
#
DISCID=8d126d0b
DTITLE=Roy Eldridge - At The Opera House 1961 Hawkins Eldridge Hodge At The Village Gate 1962
DYEAR=1962
DGENRE=Jazz
TTITLE0=Bean Stalkin'
TTITLE1=I Can't Get Strated
TTITLE2=Time On My Hands
TTITLE3=The Walker
TTITLE4=Tea For Two
TTITLE5=Blue Moon
TTITLE6=Cocktails For Two
TTITLE7=Kerry
TTITLE8=Satin Doll
TTITLE9=Perdido
TTITLE10=The Rabbit In Jazz
EXTD=YEAR: 1962
EXTT0=
EXTT1=
EXTT2=
EXTT3=
EXTT4=
EXTT5=
EXTT6=
EXTT7=
EXTT8=
EXTT9=
EXTT10=
PLAYORDER=
